<?xml version="1.0" encoding="UTF-8" standalone="no"?>
<!-- Created with Inkscape (http://www.inkscape.org/) -->

<svg
   xmlns:osb="http://www.openswatchbook.org/uri/2009/osb"
   xmlns:dc="http://purl.org/dc/elements/1.1/"
   xmlns:cc="http://creativecommons.org/ns#"
   xmlns:rdf="http://www.w3.org/1999/02/22-rdf-syntax-ns#"
   xmlns:svg="http://www.w3.org/2000/svg"
   xmlns="http://www.w3.org/2000/svg"
   xmlns:xlink="http://www.w3.org/1999/xlink"
   xmlns:sodipodi="http://sodipodi.sourceforge.net/DTD/sodipodi-0.dtd"
   xmlns:inkscape="http://www.inkscape.org/namespaces/inkscape"
   width="744.09448"
   height="1052.3622"
   id="svg2"
   version="1.1"
   inkscape:version="0.48.2 r9819"
   sodipodi:docname="icon.svg"
   inkscape:export-filename="C:\Users\rnaegele\Documents\Projekte\perfload\extras\perfload-loadprofiles\images\icon.png"
   inkscape:export-xdpi="28.678638"
   inkscape:export-ydpi="28.678638">
  <defs
     id="defs4">
    <linearGradient
       id="linearGradient5390">
      <stop
         style="stop-color:#ffffff;stop-opacity:1;"
         offset="0"
         id="stop5392" />
      <stop
         style="stop-color:#37373d;stop-opacity:0;"
         offset="1"
         id="stop5394" />
    </linearGradient>
    <linearGradient
       id="linearGradient5349">
      <stop
         style="stop-color:#939ca0;stop-opacity:0;"
         offset="0"
         id="stop5351" />
      <stop
         style="stop-color:#aa8e92;stop-opacity:0;"
         offset="1"
         id="stop5353" />
    </linearGradient>
    <linearGradient
       id="linearGradient5333"
       osb:paint="solid">
      <stop
         style="stop-color:#004f6b;stop-opacity:1;"
         offset="0"
         id="stop5335" />
    </linearGradient>
    <linearGradient
       id="linearGradient3818">
      <stop
         style="stop-color:#f006e8;stop-opacity:0.43529412;"
         offset="0"
         id="stop3820" />
      <stop
         style="stop-color:#006e96;stop-opacity:1;"
         offset="1"
         id="stop3822" />
    </linearGradient>
    <linearGradient
       inkscape:collect="always"
       xlink:href="#linearGradient3818"
       id="linearGradient3824"
       x1="151.01073"
       y1="251.70993"
       x2="221.74394"
       y2="251.70993"
       gradientUnits="userSpaceOnUse"
       gradientTransform="matrix(1,0,0,0.98414517,188,-57.002252)" />
    <linearGradient
       inkscape:collect="always"
       xlink:href="#linearGradient3818"
       id="linearGradient3829"
       x1="323.70938"
       y1="144.08221"
       x2="447.62985"
       y2="144.08221"
       gradientUnits="userSpaceOnUse" />
    <linearGradient
       inkscape:collect="always"
       xlink:href="#linearGradient3818"
       id="linearGradient3850"
       gradientUnits="userSpaceOnUse"
       x1="323.70938"
       y1="144.08221"
       x2="447.62985"
       y2="144.08221" />
    <linearGradient
       inkscape:collect="always"
       xlink:href="#linearGradient3818"
       id="linearGradient3024"
       gradientUnits="userSpaceOnUse"
       x1="323.70938"
       y1="144.08221"
       x2="447.62985"
       y2="144.08221"
       gradientTransform="matrix(1,0,0,1.1362413,72.859286,-0.46788812)" />
    <linearGradient
       inkscape:collect="always"
       xlink:href="#linearGradient3818"
       id="linearGradient3073"
       gradientUnits="userSpaceOnUse"
       gradientTransform="matrix(1,0,0,1.1362413,72.859286,-0.46788812)"
       x1="323.70938"
       y1="144.08221"
       x2="447.62985"
       y2="144.08221" />
    <linearGradient
       inkscape:collect="always"
       xlink:href="#linearGradient3818"
       id="linearGradient3092"
       gradientUnits="userSpaceOnUse"
       gradientTransform="matrix(1,0,0,1.1362413,72.859286,-0.46788812)"
       x1="323.70938"
       y1="144.08221"
       x2="447.62985"
       y2="144.08221" />
    <linearGradient
       inkscape:collect="always"
       xlink:href="#linearGradient3818"
       id="linearGradient3100"
       gradientUnits="userSpaceOnUse"
       gradientTransform="matrix(0.24615265,0,0,0.82589753,287.39754,27.937347)"
       x1="323.70938"
       y1="144.08221"
       x2="447.62985"
       y2="144.08221" />
    <linearGradient
       inkscape:collect="always"
       xlink:href="#linearGradient3818"
       id="linearGradient5347"
       x1="344"
       y1="130.79968"
       x2="387.625"
       y2="130.79968"
       gradientUnits="userSpaceOnUse" />
    <linearGradient
       inkscape:collect="always"
       xlink:href="#linearGradient3818"
       id="linearGradient5377"
       gradientUnits="userSpaceOnUse"
       gradientTransform="matrix(0.24615265,0,-0.1327957,0.81515154,282.90551,27.575144)"
       x1="323.70938"
       y1="144.08221"
       x2="447.62985"
       y2="144.08221" />
  </defs>
  <sodipodi:namedview
     id="base"
     pagecolor="#ffffff"
     bordercolor="#666666"
     borderopacity="1.0"
     inkscape:pageopacity="0.0"
     inkscape:pageshadow="2"
     inkscape:zoom="11.313708"
     inkscape:cx="343.88099"
     inkscape:cy="926.61227"
     inkscape:document-units="cm"
     inkscape:current-layer="layer1"
     showgrid="false"
     showguides="true"
     inkscape:guide-bbox="true"
     units="mm"
     inkscape:window-width="1920"
     inkscape:window-height="1148"
     inkscape:window-x="-8"
     inkscape:window-y="-8"
     inkscape:window-maximized="1"
     inkscape:snap-global="true">
    <inkscape:grid
       type="xygrid"
       id="grid2985"
       empspacing="5"
       visible="true"
       enabled="true"
       snapvisiblegridlinesonly="true" />
    <sodipodi:guide
       orientation="-0.91283418,0.40833046"
       position="152.79576,801.41741"
       id="guide3012" />
    <sodipodi:guide
       orientation="-0.91283418,0.40833046"
       position="221.94314,804.36711"
       id="guide3014" />
    <sodipodi:guide
       orientation="0,1"
       position="139.43125,771.54068"
       id="guide3016" />
    <sodipodi:guide
       orientation="-0.91283418,0.40833046"
       position="153.28125,796.4375"
       id="guide3788" />
  </sodipodi:namedview>
  <metadata
     id="metadata7">
    <rdf:RDF>
      <cc:Work
         rdf:about="">
        <dc:format>image/svg+xml</dc:format>
        <dc:type
           rdf:resource="http://purl.org/dc/dcmitype/StillImage" />
        <dc:title />
      </cc:Work>
    </rdf:RDF>
  </metadata>
  <g
     inkscape:label="Ebene 1"
     inkscape:groupmode="layer"
     id="layer1"
     transform="translate(0,0.00129746)">
    <rect
       style="fill:none;stroke:none"
       id="rect5408"
       width="53.129246"
       height="53.129246"
       x="330.86655"
       y="108.98793" />
    <path
       sodipodi:type="arc"
       style="fill:#ffffff;fill-opacity:1;stroke:url(#linearGradient5347);stroke-opacity:1"
       id="path3119"
       sodipodi:cx="365.8125"
       sodipodi:cy="130.79968"
       sodipodi:rx="21.3125"
       sodipodi:ry="25.6875"
       d="m 387.125,130.79968 c 0,14.18682 -9.54193,25.6875 -21.3125,25.6875 -11.77057,0 -21.3125,-11.50068 -21.3125,-25.6875 0,-14.18681 9.54193,-25.6875 21.3125,-25.6875 11.77057,0 21.3125,11.50069 21.3125,25.6875 z"
       transform="matrix(1,0,-0.34365597,1.0130611,36.823621,3.0450344)" />
    <path
       style="font-size:33.34426117px;font-style:normal;font-weight:normal;line-height:125%;letter-spacing:0px;word-spacing:0px;fill:#004f6b;fill-opacity:1;stroke:#004f6b;stroke-width:0.81515151;stroke-opacity:1;font-family:Sans"
       inkscape:connector-curvature="0"
       id="path3797"
       d="m 358.73135,139.19726 10.49647,-19.45644 2.57472,0 -9.25779,17.16042 9.58223,0 -1.23867,2.29602 z" />
    <path
       style="fill:url(#linearGradient5377);fill-opacity:1;fill-rule:nonzero;stroke:none"
       d="M 344.1875 140.5625 L 343.6875 143.5625 L 345.3125 140.5625 L 344.1875 140.5625 z M 347.71875 140.5625 L 343.71875 148 L 352 145.9375 L 354.90625 140.5625 L 347.71875 140.5625 z M 357.3125 140.5625 L 354.78125 145.28125 L 363.0625 143.21875 L 364.5 140.5625 L 357.3125 140.5625 z M 366.875 140.5625 L 365.8125 142.53125 L 373.75 140.5625 L 366.875 140.5625 z "
       transform="translate(0,-0.00129746)"
       id="rect3807" />
    <path
       style="font-size:33.34426117px;font-style:normal;font-weight:normal;line-height:125%;letter-spacing:0px;word-spacing:0px;fill:#006e96;fill-opacity:1;stroke:none;font-family:Sans"
       sodipodi:nodetypes="ccccccccccssscccscsccccss"
       inkscape:connector-curvature="0"
       id="path3789"
       d="m 338.16797,149.36088 13.0922,-24.25827 2.17657,0 -0.98807,1.83151 c 0.8998,-0.71666 1.76931,-1.25417 2.60853,-1.61252 0.8392,-0.35832 1.7189,-0.53749 2.63909,-0.53751 1.20329,2e-5 2.09797,0.30969 2.68403,0.92903 0.58603,0.61936 0.80923,1.49309 0.66959,2.62118 -0.13968,1.12811 -0.57228,2.3646 -1.2978,3.70946 -0.77806,1.44221 -1.73734,2.74063 -2.87784,3.89527 -1.14053,1.15465 -2.36993,2.03944 -3.68819,2.65436 -1.31829,0.61492 -2.52158,0.92239 -3.60985,0.92239 -0.79632,0 -1.42009,-0.16811 -1.87132,-0.50433 -0.45125,-0.33621 -0.74193,-0.76092 -0.87208,-1.27409 l -5.91095,10.95165 z m 11.41061,-17.13132 c -0.97853,1.81382 -1.3345,3.15427 -1.0679,4.02136 0.26658,0.86709 0.9219,1.30064 1.96596,1.30064 1.06173,0 2.21309,-0.44903 3.45408,-1.34709 1.24097,-0.89806 2.36981,-2.28938 3.38654,-4.17398 0.96896,-1.79611 1.3251,-3.14098 1.06843,-4.03463 -0.25671,-0.89362 -0.89824,-1.34043 -1.92457,-1.34044 -1.01752,10e-6 -2.17436,0.47558 -3.4705,1.42671 -1.29618,0.95116 -2.43352,2.33363 -3.41204,4.14743 z" />
  </g>
</svg>
