<?xml version="1.0" encoding="UTF-8" standalone="no"?>
<!-- Created with Inkscape (http://www.inkscape.org/) -->

<svg
   xmlns:dc="http://purl.org/dc/elements/1.1/"
   xmlns:cc="http://creativecommons.org/ns#"
   xmlns:rdf="http://www.w3.org/1999/02/22-rdf-syntax-ns#"
   xmlns:svg="http://www.w3.org/2000/svg"
   xmlns="http://www.w3.org/2000/svg"
   xmlns:xlink="http://www.w3.org/1999/xlink"
   xmlns:sodipodi="http://sodipodi.sourceforge.net/DTD/sodipodi-0.dtd"
   xmlns:inkscape="http://www.inkscape.org/namespaces/inkscape"
   width="744.09448"
   height="1052.3622"
   id="svg2"
   version="1.1"
   inkscape:version="0.48.2 r9819"
   sodipodi:docname="logo.svg"
   inkscape:export-filename="C:\Users\rnaegele\Documents\Projekte\perfload\extras\perfload-loadprofiles\images\logo.png"
   inkscape:export-xdpi="319.15842"
   inkscape:export-ydpi="319.15842">
  <defs
     id="defs4">
    <linearGradient
       id="linearGradient3818">
      <stop
         style="stop-color:#f006e8;stop-opacity:0.43529412;"
         offset="0"
         id="stop3820" />
      <stop
         style="stop-color:#006e96;stop-opacity:1;"
         offset="1"
         id="stop3822" />
    </linearGradient>
    <linearGradient
       inkscape:collect="always"
       xlink:href="#linearGradient3818"
       id="linearGradient3824"
       x1="151.01073"
       y1="251.70993"
       x2="221.74394"
       y2="251.70993"
       gradientUnits="userSpaceOnUse"
       gradientTransform="matrix(1,0,0,0.98414517,188,-57.002252)" />
    <linearGradient
       inkscape:collect="always"
       xlink:href="#linearGradient3818"
       id="linearGradient3829"
       x1="323.70938"
       y1="144.08221"
       x2="447.62985"
       y2="144.08221"
       gradientUnits="userSpaceOnUse" />
    <linearGradient
       inkscape:collect="always"
       xlink:href="#linearGradient3818"
       id="linearGradient3850"
       gradientUnits="userSpaceOnUse"
       x1="323.70938"
       y1="144.08221"
       x2="447.62985"
       y2="144.08221" />
    <linearGradient
       inkscape:collect="always"
       xlink:href="#linearGradient3818"
       id="linearGradient3024"
       gradientUnits="userSpaceOnUse"
       x1="323.70938"
       y1="144.08221"
       x2="447.62985"
       y2="144.08221"
       gradientTransform="matrix(1,0,0,1.1362413,72.859286,-0.46788812)" />
    <linearGradient
       inkscape:collect="always"
       xlink:href="#linearGradient3818"
       id="linearGradient3073"
       gradientUnits="userSpaceOnUse"
       gradientTransform="matrix(1,0,0,1.1362413,72.859286,-0.46788812)"
       x1="323.70938"
       y1="144.08221"
       x2="447.62985"
       y2="144.08221" />
  </defs>
  <sodipodi:namedview
     id="base"
     pagecolor="#ffffff"
     bordercolor="#666666"
     borderopacity="1.0"
     inkscape:pageopacity="0.0"
     inkscape:pageshadow="2"
     inkscape:zoom="8"
     inkscape:cx="388.48443"
     inkscape:cy="933.84791"
     inkscape:document-units="cm"
     inkscape:current-layer="layer1"
     showgrid="false"
     showguides="true"
     inkscape:guide-bbox="true"
     units="mm"
     inkscape:window-width="1920"
     inkscape:window-height="1148"
     inkscape:window-x="-8"
     inkscape:window-y="-8"
     inkscape:window-maximized="1"
     inkscape:snap-global="true">
    <inkscape:grid
       type="xygrid"
       id="grid2985"
       empspacing="5"
       visible="true"
       enabled="true"
       snapvisiblegridlinesonly="true" />
    <sodipodi:guide
       orientation="-0.91283418,0.40833046"
       position="152.79576,801.41741"
       id="guide3012" />
    <sodipodi:guide
       orientation="-0.91283418,0.40833046"
       position="221.94314,804.36711"
       id="guide3014" />
    <sodipodi:guide
       orientation="0,1"
       position="139.43125,771.54068"
       id="guide3016" />
    <sodipodi:guide
       orientation="-0.91283418,0.40833046"
       position="153.28125,796.4375"
       id="guide3788" />
  </sodipodi:namedview>
  <metadata
     id="metadata7">
    <rdf:RDF>
      <cc:Work
         rdf:about="">
        <dc:format>image/svg+xml</dc:format>
        <dc:type
           rdf:resource="http://purl.org/dc/dcmitype/StillImage" />
        <dc:title></dc:title>
      </cc:Work>
    </rdf:RDF>
  </metadata>
  <g
     inkscape:label="Ebene 1"
     inkscape:groupmode="layer"
     id="layer1"
     transform="translate(0,0.00129746)">
    <g
       id="g3054"
       transform="matrix(0.81515152,0,0,0.81515152,85.053409,27.909514)">
      <rect
         y="109.73589"
         x="308.125"
         height="41.25"
         width="152"
         id="rect3831"
         style="fill:#ffffff;fill-opacity:1;fill-rule:nonzero;stroke:none" />
      <g
         id="g3035">
        <g
           style="font-size:33.34426117px;font-style:normal;font-weight:normal;line-height:125%;letter-spacing:0px;word-spacing:0px;fill:#0000ff;fill-opacity:1;stroke:none;font-family:Sans"
           id="text3782"
           transform="matrix(1,0,-0.53948514,1,73.734351,-0.31133073)">
          <path
             d="m 317.33147,149.46185 0,-29.91735 2.67015,0 0,2.24683 c 0.62954,-0.87917 1.34049,-1.53857 2.13286,-1.97818 0.79235,-0.43958 1.75295,-0.65938 2.8818,-0.6594 1.47617,2e-5 2.77868,0.37992 3.90753,1.1397 1.12883,0.75981 1.98089,1.83167 2.55618,3.21557 0.57526,1.38393 0.86289,2.90081 0.86291,4.55064 -2e-5,1.76925 -0.3175,3.36211 -0.95246,4.77859 -0.63499,1.41648 -1.5576,2.50191 -2.76783,3.25627 -1.21027,0.75437 -2.48293,1.13156 -3.81799,1.13156 -0.97689,0 -1.85337,-0.20623 -2.62944,-0.61869 -0.77609,-0.41246 -1.41377,-0.93347 -1.91306,-1.56301 l 0,14.41747 z m 2.65386,-21.17425 c 0,2.22513 0.45045,3.86955 1.35136,4.93326 0.90089,1.06372 1.99175,1.59558 3.27256,1.59558 1.3025,0 2.41777,-0.55085 3.34582,-1.65256 0.92802,-1.10171 1.39204,-2.80853 1.39206,-5.1205 -2e-5,-2.2034 -0.45318,-3.85324 -1.3595,-4.94954 -0.90634,-1.09626 -1.98905,-1.6444 -3.24813,-1.64441 -1.24825,10e-6 -2.35267,0.58343 -3.31326,1.75024 -0.96061,1.16685 -1.44091,2.86282 -1.44091,5.08793 z"
             id="path3789"
             inkscape:connector-curvature="0"
             sodipodi:nodetypes="ccccccccccssscccscsccccss"
             style="fill:#006e96;fill-opacity:1" />
          <path
             d="m 347.7288,131.2671 3.02834,0.37447 c -0.47761,1.76924 -1.36223,3.14231 -2.65387,4.11919 -1.29167,0.97688 -2.94151,1.46532 -4.94954,1.46532 -2.52904,0 -4.53436,-0.77879 -6.01596,-2.33638 -1.48161,-1.55758 -2.22241,-3.742 -2.22241,-6.55325 0,-2.90893 0.74894,-5.16661 2.24683,-6.77305 1.49788,-1.60642 3.44079,-2.40963 5.82873,-2.40965 2.31194,2e-5 4.20058,0.78695 5.66592,2.3608 1.46531,1.57388 2.19797,3.78815 2.19799,6.6428 -2e-5,0.17368 -0.005,0.43418 -0.0163,0.78151 l -12.89485,0 c 0.10854,1.8995 0.64583,3.35397 1.61186,4.36341 0.96602,1.00945 2.17084,1.51417 3.61447,1.51417 1.07456,0 1.99174,-0.28221 2.75155,-0.84664 0.75978,-0.56441 1.36219,-1.46531 1.80723,-2.7027 z m -9.62229,-4.73788 9.65485,0 c -0.13026,-1.45446 -0.49931,-2.54531 -1.10713,-3.27256 -0.93348,-1.12883 -2.14373,-1.69325 -3.63075,-1.69326 -1.34593,1e-5 -2.47749,0.45046 -3.39466,1.35135 -0.91719,0.90092 -1.42463,2.10574 -1.52231,3.61447 z"
             id="path3791"
             inkscape:connector-curvature="0"
             style="fill:#006e96;fill-opacity:1" />
          <path
             d="m 354.42045,136.83533 0,-17.29083 2.63758,0 0,2.62131 c 0.67296,-1.22652 1.29436,-2.03516 1.86422,-2.42593 0.56984,-0.39073 1.19667,-0.58611 1.8805,-0.58613 0.98772,2e-5 1.99174,0.31479 3.01205,0.94432 l -1.00944,2.71899 c -0.71639,-0.4233 -1.43277,-0.63496 -2.14915,-0.63497 -0.6404,1e-5 -1.21568,0.19267 -1.72582,0.57799 -0.51016,0.38534 -0.87377,0.91991 -1.09085,1.60371 -0.32564,1.04202 -0.48845,2.18172 -0.48844,3.41909 l 0,9.05245 z"
             id="path3793"
             inkscape:connector-curvature="0"
             style="fill:#006e96;fill-opacity:1" />
          <path
             d="m 366.28957,136.83533 0,-15.01143 -2.58874,0 0,-2.2794 2.58874,0 0,-1.83979 c 0,-1.16139 0.10311,-2.0243 0.30935,-2.58874 0.28221,-0.75978 0.77879,-1.37575 1.48974,-1.84794 0.71095,-0.47213 1.70683,-0.70821 2.98764,-0.70824 0.82491,3e-5 1.73667,0.0977 2.73527,0.29307 l -0.4396,2.55617 c -0.60785,-0.10852 -1.18312,-0.16279 -1.72582,-0.16281 -0.89006,2e-5 -1.51961,0.18997 -1.88864,0.56985 -0.36905,0.37992 -0.55358,1.09087 -0.55357,2.13286 l 0,1.59557 3.37024,0 0,2.2794 -3.37024,0 0,15.01143 z"
             id="path3795"
             inkscape:connector-curvature="0"
             style="fill:#006e96;fill-opacity:1" />
          <path
             d="m 375.08152,136.83533 0,-23.8685 3.15858,0 0,21.05182 11.75516,0 0,2.81668 z"
             id="path3797"
             inkscape:connector-curvature="0"
             style="fill:#004f6b;fill-opacity:1;stroke:#004f6b;stroke-opacity:1" />
          <path
             d="m 392.30721,128.18992 c 0,-3.202 0.89005,-5.57365 2.67015,-7.11497 1.48703,-1.28078 3.29969,-1.92118 5.43798,-1.9212 2.37707,2e-5 4.31998,0.77881 5.82873,2.33638 1.50873,1.5576 2.2631,3.70945 2.26312,6.45557 -2e-5,2.22512 -0.33379,3.97537 -1.00131,5.25074 -0.66755,1.27538 -1.63901,2.26583 -2.91437,2.97135 -1.27538,0.70553 -2.66744,1.05829 -4.17617,1.05829 -2.4205,0 -4.37698,-0.77608 -5.86944,-2.32824 -1.49246,-1.55215 -2.23869,-3.78812 -2.23869,-6.70792 z m 3.01206,0 c 0,2.21427 0.48301,3.87225 1.44904,4.97396 0.96602,1.10171 2.1817,1.65256 3.64703,1.65256 1.45446,0 2.66471,-0.55357 3.63075,-1.6607 0.96601,-1.10713 1.44903,-2.79497 1.44904,-5.06351 -1e-5,-2.13828 -0.48574,-3.75827 -1.45718,-4.85999 -0.97147,-1.1017 -2.179,-1.65255 -3.62261,-1.65256 -1.46533,1e-5 -2.68101,0.54815 -3.64703,1.64442 -0.96603,1.09629 -1.44904,2.75156 -1.44904,4.96582 z"
             id="path3799"
             inkscape:connector-curvature="0"
             style="fill:#004f6b;fill-opacity:1;stroke:#004f6b;stroke-opacity:1" />
          <path
             d="m 423.24183,134.70247 c -1.08544,0.92261 -2.13016,1.57386 -3.13417,1.95376 -1.00402,0.3799 -2.08131,0.56985 -3.23185,0.56985 -1.8995,0 -3.35939,-0.46402 -4.37969,-1.39206 -1.0203,-0.92803 -1.53045,-2.11386 -1.53045,-3.55748 0,-0.84662 0.19266,-1.61999 0.57799,-2.32009 0.38532,-0.7001 0.89005,-1.2618 1.51417,-1.68513 0.62411,-0.4233 1.32693,-0.7435 2.10844,-0.9606 0.57527,-0.15195 1.4436,-0.29848 2.60502,-0.4396 2.36621,-0.2822 4.10832,-0.61868 5.22632,-1.00944 0.0108,-0.4016 0.0163,-0.65667 0.0163,-0.76523 -1e-5,-1.19395 -0.2768,-2.03515 -0.83035,-2.52361 -0.74895,-0.66209 -1.86151,-0.99315 -3.33768,-0.99316 -1.3785,1e-5 -2.39609,0.24152 -3.05276,0.72452 -0.65669,0.48303 -1.14242,1.3378 -1.45718,2.56431 l -2.86553,-0.39075 c 0.2605,-1.22652 0.68925,-2.21696 1.28623,-2.97135 0.59698,-0.75435 1.45989,-1.33506 2.58874,-1.74211 1.12884,-0.40701 2.43677,-0.61053 3.92381,-0.61055 1.47617,2e-5 2.67556,0.17369 3.59819,0.52101 0.9226,0.34735 1.60099,0.78423 2.03517,1.31065 0.43415,0.52644 0.73807,1.19126 0.91176,1.99446 0.0977,0.49931 0.14651,1.40022 0.14653,2.70271 l 0,3.90753 c -2e-5,2.72443 0.0624,4.44754 0.18724,5.16934 0.1248,0.72181 0.37174,1.41377 0.7408,2.07588 l -3.0609,0 c -0.30393,-0.60784 -0.49931,-1.31879 -0.58613,-2.13286 z m -0.24422,-6.54512 c -1.06373,0.43418 -2.6593,0.80323 -4.78673,1.10714 -1.20483,0.17367 -2.05688,0.36905 -2.55617,0.58613 -0.4993,0.21709 -0.88463,0.53457 -1.15598,0.95246 -0.27136,0.41789 -0.40704,0.88191 -0.40703,1.39205 -10e-6,0.78151 0.29577,1.43277 0.88733,1.95377 0.59155,0.52101 1.45718,0.78151 2.59688,0.78151 1.12883,0 2.13285,-0.24694 3.01206,-0.74081 0.87918,-0.49386 1.52501,-1.16954 1.93748,-2.02703 0.31476,-0.6621 0.47215,-1.63898 0.47216,-2.93065 z"
             id="path3801"
             inkscape:connector-curvature="0"
             style="fill:#004f6b;fill-opacity:1;stroke:#004f6b;stroke-opacity:1" />
          <path
             d="m 441.73747,136.83533 0,-2.18171 c -1.09629,1.71497 -2.70814,2.57246 -4.83557,2.57246 -1.37849,0 -2.64573,-0.3799 -3.8017,-1.1397 -1.15598,-0.75979 -2.05145,-1.82079 -2.68643,-3.18301 -0.63497,-1.3622 -0.95246,-2.92792 -0.95246,-4.69717 0,-1.72582 0.28764,-3.29154 0.86292,-4.69718 0.57527,-1.40561 1.43818,-2.48289 2.58874,-3.23185 1.15054,-0.74893 2.43677,-1.1234 3.85868,-1.12342 1.042,2e-5 1.97004,0.21982 2.78412,0.6594 0.81405,0.43961 1.47616,1.01217 1.98633,1.71768 l 0,-8.564 2.91436,0 0,23.8685 z m -9.2641,-8.62913 c -10e-6,2.21427 0.46673,3.86954 1.4002,4.96582 0.93346,1.09628 2.03516,1.64442 3.30512,1.64442 1.28079,0 2.36893,-0.52372 3.26441,-1.57116 0.89547,-1.04743 1.3432,-2.64571 1.34322,-4.79486 -2e-5,-2.36622 -0.4559,-4.1029 -1.36764,-5.21004 -0.91177,-1.10712 -2.03518,-1.66069 -3.37024,-1.6607 -1.30252,1e-5 -2.39066,0.53187 -3.26442,1.59557 -0.87377,1.06373 -1.31066,2.74071 -1.31065,5.03095 z"
             id="path3803"
             inkscape:connector-curvature="0"
             style="fill:#004f6b;fill-opacity:1;stroke:#004f6b;stroke-opacity:1" />
        </g>
        <rect
           style="fill:url(#linearGradient3073);fill-opacity:1;fill-rule:nonzero;stroke:none"
           id="rect3807"
           width="123.92046"
           height="12.453389"
           x="396.56866"
           y="157.01758"
           transform="matrix(1,0,-0.47479805,0.88009477,0,0)" />
        <rect
           style="fill:#ffffff;fill-opacity:1;fill-rule:nonzero;stroke:none"
           id="rect3809"
           width="2.9375"
           height="13.705911"
           x="393.83585"
           y="156.3795"
           transform="matrix(1,0,-0.47479805,0.88009477,0,0)" />
        <rect
           y="156.3795"
           x="405.59964"
           height="13.705911"
           width="2.9375"
           id="rect3811"
           style="fill:#ffffff;fill-opacity:1;fill-rule:nonzero;stroke:none"
           transform="matrix(1,0,-0.47479805,0.88009477,0,0)" />
        <rect
           style="fill:#ffffff;fill-opacity:1;fill-rule:nonzero;stroke:none"
           id="rect3815"
           width="2.9375"
           height="13.705911"
           x="417.36343"
           y="156.3795"
           transform="matrix(1,0,-0.47479805,0.88009477,0,0)" />
        <rect
           y="156.3795"
           x="429.12723"
           height="13.705911"
           width="2.9375"
           id="rect3817"
           style="fill:#ffffff;fill-opacity:1;fill-rule:nonzero;stroke:none"
           transform="matrix(1,0,-0.47479805,0.88009477,0,0)" />
        <path
           style="fill:#ffffff;stroke:none"
           d="m 308.12811,149.28814 142.41851,-11.46405 -6.11725,11.46405 z"
           id="path3821"
           inkscape:connector-curvature="0" />
      </g>
    </g>
  </g>
</svg>
